<?xml version="1.0" encoding="UTF-8"?>
<!DOCTYPE svg PUBLIC "-//W3C//DTD SVG 1.1//EN" "http://www.w3.org/Graphics/SVG/1.1/DTD/svg11.dtd">
<svg version="1.1" xmlns="http://www.w3.org/2000/svg" xmlns:xlink="http://www.w3.org/1999/xlink" x="0" y="0" width="420.348" height="572.286" viewBox="0, 0, 420.348, 572.286">
  <defs>
    <clipPath id="Clip_1">
      <path d="M-17.642,-6.534 L439.177,-6.534 L439.177,572.286 L-17.642,572.286 z"/>
    </clipPath>
    <clipPath id="Clip_2">
      <path d="M-17.642,-6.534 L439.177,-6.534 L439.177,572.286 L-17.642,572.286 z"/>
    </clipPath>
    <clipPath id="Clip_3">
      <path d="M-17.642,-6.534 L439.177,-6.534 L439.177,572.286 L-17.642,572.286 z"/>
    </clipPath>
  </defs>
  <g id="Layer_1">
    <path d="M159.655,96.165 C155.806,81.657 164.524,56.544 184.426,35.994 C210.064,9.54 282.688,-20.04 349.762,27.885 C405.301,67.575 411.697,128.172 382.225,134.145 L159.655,96.165" fill="#F7D6DF" id="path89085"/>
    <path d="M362.836,37.104 C362.665,50.817 349.105,70.422 314.593,71.814 L342.025,127.287 L382.225,134.145 C407.269,129.072 406.918,81.708 362.836,37.104" fill="#DDB5CB" id="path89087"/>
    <path d="M159.733,93.498 C159.733,93.498 155.104,60.549 177.829,43.872 C177.829,43.872 172.69,71.184 197.743,67.98 C197.743,67.98 168.985,81.243 159.733,93.498" fill="#DDB5CB" id="path89089"/>
    <path d="M159.121,93.588 C156.841,78.81 165.658,55.374 184.426,35.994 C210.064,9.54 282.688,-20.04 349.762,27.885 C405.301,67.575 413.113,127.662 383.638,133.638" fill-opacity="0" stroke="#1A1919" stroke-width="4.8" stroke-linecap="round" stroke-linejoin="round" id="path89091"/>
    <path d="M387.661,173.838 C399.721,173.061 413.344,183.399 417.229,203.796 C421.354,225.474 407.356,259.044 377.191,256.935 L368.701,245.517 L370.741,187.377 L387.661,173.838" fill="#FFFFFE" id="path89093"/>
    <path d="M379.864,179.721 C392.947,178.038 404.239,187.629 410.014,206.823 C412.618,215.487 410.608,238.764 401.107,247.29 C390.889,256.464 384.994,256.875 368.65,255.765 L361.675,247.134 L363.628,192.453 L379.864,179.721" fill="#623939" id="path89095"/>
    <g clip-path="url(#Clip_1)" id="g89103">
      <path d="M387.661,173.838 C399.721,173.061 413.344,183.399 417.229,203.796 C421.354,225.474 407.356,259.044 377.191,256.935" fill-opacity="0" stroke="#1A1919" stroke-width="4.8" stroke-linecap="round" stroke-linejoin="round" id="path89097"/>
      <path d="M171.79,653.466 C173.062,631.782 186.268,580.503 186.268,580.503 C186.268,580.503 174.283,531.03 170.113,501.987 L130.633,479.445 C130.633,479.445 125.53,475.938 128.401,469.875 C130.126,466.23 143.191,422.436 163.372,395.76 C175.159,380.178 212.569,375.327 212.569,375.327 L291.376,369.654 L333.787,383.046 L339.208,523.359 C339.208,523.359 328.366,572.466 328.048,580.437 C327.73,588.411 347.179,653.466 347.179,653.466" fill="#F7D6DF" id="path89099"/>
      <path d="M159.112,495.792 L169.891,501.954 C174.058,530.994 186.061,580.302 186.061,580.302 C186.061,580.302 184.153,587.868 181.726,598.41 C227.584,586.32 302.269,602.205 334.849,610.341 C331.069,596.406 327.919,583.686 328.048,580.437 C328.366,572.466 339.208,523.359 339.208,523.359 L337.984,491.7 L311.905,487.863 C283.024,515.367 176.617,498.747 159.112,495.792" fill="#DDB5CB" id="path89101"/>
    </g>
    <path d="M205.912,386.556 C215.797,366.147 238.123,358.179 238.123,358.179 L272.242,355.941 C272.242,355.941 283.921,357.54 292.33,371.886 L205.912,386.556" fill="#F7D6DF" id="path89105"/>
    <path d="M120.736,209.157 C111.151,189.981 111.82,144.675 136.258,114.204 C213.871,17.421 326.179,52.116 336.217,84.984 C336.217,84.984 366.223,79.023 382.783,117.399 C409.315,178.896 382.861,211.188 382.861,211.188 L368.188,227.667 L153.475,235.317 L121.345,210.837" fill="#FFFFFE" id="path89107"/>
    <path d="M131.971,219.885 C122.596,200.712 119.488,153.51 142.714,122.523 C209.98,32.79 323.077,63.591 332.899,96.462 C332.899,96.462 362.245,90.498 378.439,128.871 C404.395,190.371 370.219,223.332 370.219,223.332 L359.011,237.867 L154.171,246.795 L131.971,219.885" fill="#623939" id="path89109"/>
    <path d="M136.579,275.463 C119.458,273.066 108.46,241.614 114.325,222.396 C120.487,202.197 135.211,210.069 135.211,210.069 L143.785,216.447 L146.845,273.057 L136.579,275.463" fill="#F7CCAA" id="path89111"/>
    <path d="M143.656,240.417 C146.41,249.726 144.439,258.519 139.252,260.052 C134.062,261.588 127.627,255.282 124.873,245.973 C122.116,236.667 124.087,227.871 129.277,226.341 C134.461,224.802 140.902,231.111 143.656,240.417" fill="#CF957E" id="path89113"/>
    <path d="M345.118,286.764 C335.875,309.018 307.459,340.857 261.235,351.471 C215.014,362.088 178.774,340.593 159.724,318.948 C144.802,301.998 139.702,286.317 138.496,254.922 C137.473,228.312 135.757,210.069 135.757,210.069 C135.757,210.069 132.448,186.318 155.431,160.083 C182.824,128.811 240.808,100.503 298.327,122.418 L314.305,113.745 C314.305,113.745 306.547,126.528 307.459,130.182 C308.368,133.833 345.802,168.525 341.239,218.742 L345.118,286.764" fill="#F7CCAA" id="path89115"/>
    <path d="M335.533,228.558 C335.533,228.558 342.721,210.753 358.588,206.874 C375.955,202.626 390.085,211.44 389.632,236.088 C389.179,260.742 369.082,285.396 342.607,286.308" fill="#F7CCAA" id="path89117"/>
    <path d="M264.307,282.597 C230.524,292.644 199.024,286.713 199.024,286.713 C199.024,286.713 204.046,328.71 226.87,337.38 C249.685,346.05 263.851,318.669 264.307,282.597" fill="#DF7370" id="path89119"/>
    <path d="M198.841,223.071 C198.841,239.547 191.422,250.416 177.634,250.416 C165.919,250.416 153.94,239.547 153.94,223.071 C153.94,206.583 165.919,193.218 177.634,193.218 C189.346,193.218 198.841,206.583 198.841,223.071" fill="#FFFFFE" id="path89121"/>
    <path d="M299.677,220.224 C299.677,237.873 284.746,249.942 269.935,249.942 C255.115,249.942 244.438,237.873 244.438,220.224 C244.438,202.569 255.157,189.348 269.935,188.256 C285.091,187.134 299.677,202.569 299.677,220.224" fill="#FFFFFE" id="path89123"/>
    <path d="M275.698,199.851 C284.053,200.856 293.065,203.454 297.574,207.618 C293.599,196.596 284.266,188.127 273.67,187.644 C262.297,187.119 252.469,194.007 247.561,205.17 C255.325,199.905 265.135,198.588 275.698,199.851" fill="#D2E0EB" id="path89125"/>
    <path d="M247.048,395.964 C246.892,386.877 251.353,386.877 251.353,386.877 C271.048,384.237 271.285,361.239 271.285,361.239 L270.646,350.205 L238.759,354.987 C238.759,354.987 239.074,368.892 237.799,372.72 C236.524,376.542 234.613,384.837 242.263,387.705 C242.263,387.705 244.657,389.427 244.975,396.444 L247.048,395.964" fill="#F7CCAA" id="path89127"/>
    <path d="M20.998,341.982 C20.998,341.982 24.862,339.6 31.405,341.091 C37.942,342.576 59.944,356.847 66.784,364.281 L75.661,368.982 L74.434,366.465 C72.466,361.683 71.263,356.181 73.03,351.492 C76.48,342.345 80.167,346.443 80.167,346.443 C80.167,346.443 82.246,359.526 87.598,365.466 C92.95,371.415 97.708,376.47 100.678,382.419 C103.654,388.365 104.548,403.83 100.384,414.834 C100.384,414.834 100.978,429.099 114.952,457.347 C117.262,462.012 123.004,472.209 128.74,484.308 L129.523,484.998 L135.469,473.703 L136.666,473.532 C145.567,475.908 159.664,482.949 169.744,499.119 L169.423,506.463 C169.423,506.463 147.184,556.188 134.428,562.245 C127.9,565.35 120.634,565.77 107.557,553.332 C97.021,543.312 92.551,487.443 80.47,449.175 C78.49,442.908 75.172,431.1 67.381,426.738 C50.305,417.177 35.821,398.394 30.841,391.83 C30.841,391.83 -1.232,359.739 6.016,357.363 L7.024,356.253 C7.024,356.253 0.391,351.243 2.77,348.864 C3.472,348.159 3.718,346.797 7.507,347.667 L7.618,346.443 C7.618,346.443 4.645,341.685 7.618,340.794 C8.938,340.395 13.012,339.999 19.732,342.36 L20.998,341.982" fill="#F7CCAA" id="path89129"/>
    <path d="M290.356,447.972 C291.763,435.972 294.826,426.252 297.205,426.252 C299.584,426.252 300.373,435.972 298.966,447.972" fill="#DF7370" id="path89131"/>
    <path d="M170.839,260.109 C170.839,264.867 163.855,268.722 155.245,268.722 C146.629,268.722 139.645,264.867 139.645,260.109 C139.645,255.351 146.629,251.496 155.245,251.496 C163.855,251.496 170.839,255.351 170.839,260.109" fill="#EC9896" id="path89133"/>
    <path d="M325.768,256.077 C325.768,261.405 316.489,265.731 305.05,265.731 C293.602,265.731 284.326,261.405 284.326,256.077 C284.326,250.737 293.602,246.411 305.05,246.411 C316.489,246.411 325.768,250.737 325.768,256.077" fill="#EC9896" id="path89135"/>
    <path d="M288.211,222.225 C288.211,233.961 281.254,243.474 272.665,243.474 C264.073,243.474 257.119,233.961 257.119,222.225 C257.119,210.483 264.073,200.97 272.665,200.97 C281.254,200.97 288.211,210.483 288.211,222.225" fill="#1A1919" id="path89137"/>
    <path d="M288.211,222.225 C288.211,233.961 281.254,243.474 272.665,243.474 C264.073,243.474 257.119,233.961 257.119,222.225 C257.119,210.483 264.073,200.97 272.665,200.97 C281.254,200.97 288.211,210.483 288.211,222.225 z" fill-opacity="0" stroke="#1A1919" stroke-width="4.5" id="path89139"/>
    <path d="M192.823,224.676 C192.823,235.596 186.583,244.446 178.897,244.446 C171.19,244.446 164.962,235.596 164.962,224.676 C164.962,213.75 171.19,204.897 178.897,204.897 C186.583,204.897 192.823,213.75 192.823,224.676" fill="#1A1919" id="path89141"/>
    <path d="M192.823,224.676 C192.823,235.596 186.583,244.446 178.897,244.446 C171.19,244.446 164.962,235.596 164.962,224.676 C164.962,213.75 171.19,204.897 178.897,204.897 C186.583,204.897 192.823,213.75 192.823,224.676 z" fill-opacity="0" stroke="#1A1919" stroke-width="1.8" id="path89143"/>
    <path d="M192.856,215.145 C192.856,217.632 190.834,219.648 188.344,219.648 C185.86,219.648 183.838,217.632 183.838,215.145 C183.838,212.655 185.86,210.639 188.344,210.639 C190.834,210.639 192.856,212.655 192.856,215.145" fill="#FFFFFE" id="path89145"/>
    <path d="M288.688,210.6 C288.688,213.441 286.39,215.739 283.555,215.739 C280.714,215.739 278.416,213.441 278.416,210.6 C278.416,207.765 280.714,205.47 283.555,205.47 C286.39,205.47 288.688,207.765 288.688,210.6" fill="#FFFFFE" id="path89147"/>
    <path d="M375.586,250.617 C372.427,261.324 363.694,268.185 356.083,265.938 C348.472,263.691 344.857,253.194 348.013,242.484 C351.172,231.78 359.905,224.922 367.519,227.166 C375.127,229.413 378.742,239.91 375.586,250.617" fill="#CF957E" id="path89149"/>
    <path d="M238.759,354.987 L237.904,373.638 C237.904,373.638 249.838,380.733 270.808,366.216 L270.646,350.205 L238.759,354.987" fill="#CF957E" id="path89151"/>
    <path d="M135.469,473.703 L130.24,485.01 C130.24,485.01 155.797,495.03 164.182,519.159 L170.524,499.938 C170.524,499.938 155.797,476.832 135.469,473.703" fill="#CF957E" id="path89153"/>
    <g clip-path="url(#Clip_2)" id="g89159">
      <path d="M305.725,502.953 C305.725,502.953 296.473,502.953 296.158,498.804 C295.84,494.658 318.481,428.01 318.481,428.01 L326.134,384.324 C326.134,384.324 337.297,381.132 345.904,383.367 C354.517,385.599 376.195,391.974 373.33,437.58 C370.459,483.177 355.789,501.036 355.789,501.036 L349.414,503.907" fill="#F7D6DF" id="path89155"/>
      <path d="M282.979,656.445 C290.632,643.26 318.268,575.655 318.691,570.126 C319.12,564.597 350.581,496.998 350.581,496.998 L349.912,496.8 C339.028,495.015 321.367,496.161 309.28,497.322 L308.491,497.847 C308.491,497.847 290.632,551.421 287.656,565.026 C287.656,565.026 258.316,639.855 254.917,655.593" fill="#F7CCAA" id="path89157"/>
    </g>
    <path d="M304.018,511.608 L308.491,497.847 C308.491,497.847 344.302,494.364 349.912,496.8 L345.367,507.84 C345.367,507.84 320.224,505.599 304.018,511.608" fill="#CF957E" id="path89161"/>
    <path d="M248.218,293.613 C230.311,293.613 214.486,299.853 204.619,309.429 C200.332,297.597 199.024,286.713 199.024,286.713 C199.024,286.713 230.524,292.644 264.307,282.597 C264.253,286.95 263.992,291.168 263.548,295.215 C258.682,294.189 253.546,293.613 248.218,293.613" fill="#C35953" id="path89163"/>
    <path d="M176.719,202.206 C183.085,202.206 189.091,203.472 194.458,205.674 C190.156,198.756 183.619,194.343 176.302,194.343 C168.409,194.343 160.417,199.482 155.374,207.348 C161.587,204.105 168.886,202.206 176.719,202.206" fill="#D2E0EB" id="path89165"/>
    <path d="M135.283,472.764 C135.283,472.764 160.741,404.778 170.491,396.903 C174.856,393.375 183.991,391.278 191.116,391.278 C190.741,391.467 208.645,382.488 208.645,382.488 L211.27,374.238 C211.27,374.238 202.591,377.664 189.991,382.092 C178.552,381.717 165.463,390.159 162.241,394.653 C139.927,425.778 128.581,471.177 128.581,471.177 L135.283,472.764" fill="#FFFFFE" id="path89167"/>
    <path d="M236.92,359.841 C236.92,359.841 205.942,370.041 203.866,396.672 C203.866,396.672 206.077,408.921 208.927,404.778 C208.555,387.342 225.481,367.296 237.862,365.508 L236.92,359.841" fill="#FFFFFE" id="path89169"/>
    <path d="M272.8,357.765 C272.8,357.765 296.035,359.844 298.489,388.362 C298.489,388.362 283.57,365.13 272.047,364.188 L272.8,357.765" fill="#FFFFFE" id="path89171"/>
    <path d="M293.956,371.742 L332.107,383.076 C332.107,383.076 343.06,382.128 349.675,384.396 C356.287,386.664 369.835,393.66 372.529,413.292 C376.732,443.964 358.876,497.805 358.876,497.805 L349.276,494.733 C349.276,494.733 377.44,429.471 356.065,399.678 C343.684,382.422 323.233,391.761 323.233,391.761 L296.602,381.753 L293.956,371.742" fill="#FFFFFE" id="path89173"/>
    <path d="M341.239,218.742 C345.802,168.525 308.368,133.833 307.459,130.182 C306.547,126.528 314.305,113.745 314.305,113.745 L298.327,122.418 C240.808,100.503 182.824,128.811 155.431,160.083 C132.448,186.318 135.757,210.069 135.757,210.069 C135.757,210.069 137.473,228.312 138.496,254.922 C139.702,286.317 144.802,301.998 159.724,318.948 C178.774,340.593 215.014,362.088 261.235,351.471 C307.459,340.857 336.058,312.327 345.118,286.764 M335.533,228.558 C335.533,228.558 342.721,210.753 358.588,206.874 C375.955,202.626 390.085,211.44 389.632,236.088 C389.179,260.742 369.082,285.396 342.607,286.308 M376.861,223.077 C376.861,223.077 354.802,212.109 345.118,251.157 M135.211,210.069 C135.211,210.069 120.487,202.197 114.325,222.396 C108.46,241.614 119.458,273.066 136.579,275.463 M123.226,220.683 C123.226,220.683 134.092,222.057 137.536,240.417 M120.736,209.157 C111.151,189.981 113.26,145.773 136.258,114.204 C206.941,17.178 326.179,52.116 336.217,84.984 C336.217,84.984 366.223,79.023 382.783,117.399 C409.315,178.896 384.496,213.132 384.496,213.132" fill-opacity="0" stroke="#1A1919" stroke-width="4.8" stroke-linecap="round" stroke-linejoin="round" id="path89175"/>
    <path d="M157.198,176.373 C157.198,176.373 169.054,165.663 190.093,174.078" fill-opacity="0" stroke="#1A1919" stroke-width="4.2" stroke-linecap="round" stroke-linejoin="round" id="path89177"/>
    <path d="M246.922,169.05 C250.798,164.712 277.483,156.744 293.455,169.272 M215.317,269.031 L213.655,263.628" fill-opacity="0" stroke="#1A1919" stroke-width="4.8" stroke-linecap="round" stroke-linejoin="round" id="path89179"/>
    <path d="M264.307,282.597 C230.524,292.644 199.024,286.713 199.024,286.713 C199.024,286.713 204.046,328.71 226.87,337.38 C249.685,346.05 263.851,318.669 264.307,282.597 z" fill-opacity="0" stroke="#1A1919" stroke-width="4.2" stroke-linecap="round" stroke-linejoin="round" id="path89181"/>
    <path d="M300.04,209.298 L308.14,206.157" fill-opacity="0" stroke="#1A1919" stroke-width="4.8" stroke-linecap="round" stroke-linejoin="round" id="path89183"/>
    <path d="M151.696,216.711 L144.826,213.534" fill-opacity="0" stroke="#1A1919" stroke-width="3.6" stroke-linecap="round" stroke-linejoin="round" id="path89185"/>
    <g clip-path="url(#Clip_3)" id="g89201">
      <path d="M238.759,354.987 C238.759,354.987 239.074,368.892 237.799,372.72 C236.524,376.542 234.613,384.837 242.263,387.705 C242.263,387.705 244.657,389.427 244.975,396.444 M270.646,350.205 L271.285,361.239 C271.285,361.239 271.048,384.237 251.353,386.877 C251.353,386.877 246.892,386.877 247.048,395.964 M238.123,358.179 C238.123,358.179 215.797,366.147 205.912,386.556 C196.027,406.965 209.566,408.399 215.947,404.892 C222.325,401.385 232.696,389.901 238.438,392.772 L240.574,397.086" fill-opacity="0" stroke="#1A1919" stroke-width="4.8" stroke-linecap="round" stroke-linejoin="round" id="path89187"/>
      <path d="M240.574,397.086 C240.574,397.086 257.398,396.48 258.598,397.482 C259.798,398.484 259.741,408.105 256.999,414.306 C255.019,418.764 242.263,454.8 240.67,470.421 C239.074,486.048 244.816,567.363 246.094,579.165 C247.366,590.967 244.816,645.177 243.859,654.741" fill-opacity="0" stroke="#1A1919" stroke-width="4.2" stroke-linecap="round" stroke-linejoin="round" id="path89189"/>
      <path d="M253.906,392.937 C261.241,390.381 270.508,405.03 283.429,409.698 C294.112,413.556 305.455,394.278 292.33,371.886 C283.921,357.54 272.242,355.941 272.242,355.941 M213.019,374.613 C213.019,374.613 188.947,382.527 189.055,382.653 C178.822,382.152 167.866,385.842 159.427,397.842 C140.188,425.205 130.969,466.776 129.244,470.421 C126.373,476.481 131.476,479.988 131.476,479.988 M181.546,411.747 C181.546,411.747 165.253,459.369 166.876,477.441 C170.092,513.264 182.893,570.927 187.018,585.363 M291.376,369.654 L332.395,382.677 M326.134,384.324 C326.134,384.324 337.297,381.132 345.904,383.367 C354.517,385.599 376.195,391.974 373.33,437.58 C370.459,483.177 355.789,501.036 355.789,501.036 C353.05,503.682 349.396,505.572 346.879,505.446 M318.481,428.01 C318.481,428.01 295.84,494.658 296.158,498.804 C296.473,502.953 305.725,502.953 305.725,502.953 M296.158,498.804 C296.158,498.804 342.715,492.429 356.11,498.486 M128.287,472.974 C129.883,471.063 153.787,474.159 169.09,498.711" fill-opacity="0" stroke="#1A1919" stroke-width="4.8" stroke-linecap="round" stroke-linejoin="round" id="path89191"/>
      <path d="M134.026,458.625 C134.026,458.625 155.713,459.261 166.876,472.656 M301.576,481.266 C301.576,481.266 363.124,467.232 365.038,482.22" fill-opacity="0" stroke="#1A1919" stroke-width="3.6" stroke-linecap="round" stroke-linejoin="round" id="path89193"/>
      <path d="M308.491,497.847 C308.491,497.847 290.632,551.421 287.656,565.026 C287.656,565.026 258.316,639.855 254.917,655.593 M350.581,496.998 C350.581,496.998 319.12,564.597 318.691,570.126 C318.268,575.655 290.632,643.26 282.979,656.445" fill-opacity="0" stroke="#1A1919" stroke-width="4.8" stroke-linecap="round" stroke-linejoin="round" id="path89195"/>
      <path d="M171.763,450.867 C171.763,450.867 206.842,450.441 210.034,450.441 L205.993,462.561 C205.993,462.561 176.866,462.348 168.151,463.41 M311.041,448.314 L265.12,448.956 L261.931,460.647 C261.931,460.647 302.323,460.011 307.426,460.434" fill-opacity="0" stroke="#1A1919" stroke-width="3.6" stroke-linecap="round" stroke-linejoin="round" id="path89197"/>
      <path d="M339.208,523.359 C339.208,523.359 328.366,572.466 328.048,580.437 C327.73,588.411 347.179,653.466 347.179,653.466 M169.423,506.463 C169.423,506.463 154.057,541.857 141.241,556.401 C130.873,567.579 113.401,562.362 107.557,553.332 C99.664,541.119 92.551,487.443 80.47,449.175 C78.49,442.908 75.172,431.1 67.381,426.738 C50.305,417.177 35.821,398.394 30.841,391.83 C30.841,391.83 5.266,364.05 4.27,359.13 C3.28,354.216 26.815,361.59 38.755,384.534 M7.018,357.738 C7.018,357.738 0.517,351.369 2.893,348.99 C5.275,346.611 26.053,349.413 48.052,376.47 M8.143,348.114 C8.143,348.114 4.645,341.685 7.618,340.794 C10.591,339.897 27.538,339.006 57.271,369.63 M19.645,341.865 C19.645,341.865 23.77,339.363 31.405,341.091 C37.942,342.57 59.944,356.847 66.784,364.281 L75.661,368.982 M81.202,378.105 C81.202,378.105 68.863,362.544 73.03,351.492 C76.48,342.345 80.167,346.443 80.167,346.443 C80.167,346.443 82.246,359.526 87.598,365.466 C92.95,371.415 97.708,376.47 100.678,382.419 C103.654,388.365 104.548,403.83 100.384,414.834 C100.384,414.834 100.978,429.099 114.952,457.347 C120.367,468.288 144.682,509.679 143.497,534.651" fill-opacity="0" stroke="#1A1919" stroke-width="4.8" stroke-linecap="round" stroke-linejoin="round" id="path89199"/>
    </g>
    <path d="M47.215,391.812 C47.215,391.812 72.484,398.682 74.698,414.639" fill-opacity="0" stroke="#1A1919" stroke-width="4.2" stroke-linecap="round" stroke-linejoin="round" id="path89203"/>
    <path d="M135.469,473.703 L129.523,484.998" fill-opacity="0" stroke="#1A1919" stroke-width="4.8" stroke-linecap="round" stroke-linejoin="round" id="path89205"/>
    <path d="M290.356,447.972 C291.763,435.972 294.826,426.252 297.205,426.252 C299.584,426.252 300.373,435.972 298.966,447.972" fill-opacity="0" stroke="#1A1919" stroke-width="3.6" stroke-linecap="round" stroke-linejoin="round" id="path89207"/>
    <path d="M246.847,203.925 C251.524,194.541 260.143,189.045 269.935,188.256 C290.191,186.621 299.677,202.569 299.677,220.224" fill-opacity="0" stroke="#1A1919" stroke-width="5.4" stroke-linecap="round" stroke-linejoin="round" id="path89209"/>
    <path d="M152.041,223.899 C152.041,206.847 161.452,193.029 176.785,193.029 C184.816,193.029 192.421,197.676 196.693,206.553" fill-opacity="0" stroke="#1A1919" stroke-width="4.8" stroke-linecap="round" stroke-linejoin="round" id="path89211"/>
    <path d="M251.197,408.558 C251.197,412.086 248.41,414.939 244.975,414.939 C241.543,414.939 238.759,412.086 238.759,408.558 C238.759,405.036 241.543,402.183 244.975,402.183 C248.41,402.183 251.197,405.036 251.197,408.558" fill="#FFFFFE" id="path89213"/>
    <path d="M251.197,408.558 C251.197,412.086 248.41,414.939 244.975,414.939 C241.543,414.939 238.759,412.086 238.759,408.558 C238.759,405.036 241.543,402.183 244.975,402.183 C248.41,402.183 251.197,405.036 251.197,408.558 z" fill-opacity="0" stroke="#1A1919" stroke-width="3.6" stroke-linecap="round" stroke-linejoin="round" id="path89215"/>
    <path d="M86.224,403.557 C86.224,403.557 75.847,387.618 81.202,378.105" fill-opacity="0" stroke="#1A1919" stroke-width="4.2" stroke-linecap="round" stroke-linejoin="round" id="path89217"/>
  </g>
</svg>
